<svg width="11" height="21" viewBox="0 0 11 21" fill="none" xmlns="http://www.w3.org/2000/svg">
<path fill-rule="evenodd" clip-rule="evenodd" d="M1.14853 10.9217H2.61959V19.82C2.61959 20.0154 2.78418 20.18 2.97963 20.18H6.827C7.02246 20.18 7.18705 20.0154 7.18705 19.82V10.9217H9.41935C9.60451 10.9217 9.75882 10.7776 9.77939 10.6028L10.1189 7.33147C10.1394 7.13602 9.99542 6.96114 9.79997 6.94056C9.78968 6.94056 9.7794 6.94056 9.75882 6.94056H7.18705V5.37693C7.18705 5.27406 7.19734 5.17119 7.23849 5.0786C7.27963 4.98602 7.35164 4.91401 7.45451 4.88315C7.51624 4.86257 7.57796 4.85229 7.63968 4.85229H9.70739C9.90284 4.85229 10.0674 4.68769 10.0674 4.49224V1.32382C10.0674 1.12836 9.90284 0.963769 9.70739 0.963769L6.85786 0.953482C6.13777 0.932908 5.41767 1.08721 4.7593 1.38554C4.3581 1.57071 3.99805 1.83817 3.69973 2.15707C3.29853 2.58913 3.01049 3.11377 2.83561 3.67956C2.68131 4.17334 2.6093 4.67741 2.6093 5.19176V6.95085H1.13825C0.942792 6.95085 0.778198 7.11544 0.778198 7.3109V10.5822C0.788485 10.7571 0.942792 10.9217 1.14853 10.9217Z" fill="#716565"/>
</svg>
