<svg width="21" height="17" viewBox="0 0 21 17" fill="none" xmlns="http://www.w3.org/2000/svg">
<path fill-rule="evenodd" clip-rule="evenodd" d="M0.59356 14.9293C2.46581 16.1329 4.64667 16.7707 6.86868 16.7707C8.58662 16.781 10.2943 16.4209 11.8579 15.7008C13.9256 14.7339 15.6538 13.1496 16.8163 11.1745C17.9067 9.34343 18.4931 7.25515 18.5137 5.11544C18.5137 5.00228 18.5137 4.88912 18.5137 4.77596C19.2543 4.21017 19.9024 3.53123 20.4271 2.74941C20.5402 2.58481 20.4888 2.3585 20.3242 2.24534C20.2213 2.17333 20.0876 2.16304 19.9744 2.21448C19.6967 2.33792 19.4189 2.44079 19.1309 2.52309C19.4909 2.10132 19.7584 1.60754 19.923 1.0829C19.9847 0.897732 19.8818 0.691991 19.6864 0.630268C19.5835 0.599407 19.4806 0.609694 19.3881 0.661129C18.6988 1.07261 17.9479 1.36065 17.166 1.53553C15.4481 -0.130976 12.7117 -0.0795404 11.0452 1.6384C10.2634 2.44079 9.83136 3.52094 9.83136 4.65252C9.83136 4.8274 9.84165 4.99199 9.86222 5.16687C6.94069 4.89941 4.25576 3.4695 2.40409 1.18577C2.28064 1.03146 2.05433 1.01089 1.90002 1.13434C1.86916 1.1652 1.8383 1.19606 1.81772 1.23721C0.922746 2.78027 1.05648 4.71424 2.17777 6.103C2.02346 6.04127 1.87944 5.97955 1.73543 5.89725C1.56055 5.80467 1.34452 5.86639 1.24165 6.04127C1.21078 6.09271 1.2005 6.14414 1.2005 6.20587C1.2005 6.23673 1.2005 6.24701 1.2005 6.26759C1.2005 7.72835 1.94117 9.09654 3.17562 9.89893C3.12418 9.88864 3.07275 9.87836 3.02131 9.86807C2.82586 9.82692 2.64069 9.96065 2.59954 10.1561C2.58925 10.2178 2.58925 10.2796 2.60983 10.331C3.06246 11.7609 4.23519 12.8513 5.68566 13.2114C4.2249 14.0961 2.51724 14.4664 0.830162 14.2607C0.634708 14.2401 0.44954 14.3738 0.428966 14.5796C0.418679 14.7133 0.480402 14.847 0.59356 14.9293Z" fill="#716565"/>
</svg>
